<svg viewBox="0 0 32 32" fill="black" xmlns="http://www.w3.org/2000/svg"><path d="M19.333 16c0-.828-.375-1.58-.976-2.121A3.522 3.522 0 0016 13c-.92 0-1.755.338-2.357.879-.601.542-.976 1.293-.976 2.121 0 .828.375 1.58.976 2.121A3.522 3.522 0 0016 19c.92 0 1.755-.337 2.357-.879.601-.541.976-1.293.976-2.121zM31 16c0-.828-.375-1.58-.977-2.121A3.521 3.521 0 0027.667 13c-.92 0-1.755.338-2.357.879-.602.542-.977 1.293-.977 2.121 0 .828.375 1.58.977 2.121a3.522 3.522 0 002.357.879c.92 0 1.755-.337 2.356-.879.602-.541.977-1.293.977-2.121zM7.667 16c0-.828-.375-1.58-.977-2.121A3.522 3.522 0 004.333 13c-.92 0-1.755.338-2.356.879C1.375 14.421 1 15.172 1 16c0 .828.375 1.58.977 2.121A3.522 3.522 0 004.333 19c.92 0 1.755-.337 2.357-.879.602-.541.977-1.293.977-2.121z"></path></svg>